<?xml version="1.0" encoding="UTF-8" standalone="no"?>
<!-- Created with Inkscape (http://www.inkscape.org/) -->

<svg
   version="1.1"
   id="svg2"
   width="6.0109782in"
   height="3.8655205in"
   viewBox="0 0 577.05395 371.08998"
   sodipodi:docname="hk5.svg"
   inkscape:version="1.1.2 (0a00cf5339, 2022-02-04)"
   xmlns:inkscape="http://www.inkscape.org/namespaces/inkscape"
   xmlns:sodipodi="http://sodipodi.sourceforge.net/DTD/sodipodi-0.dtd"
   xmlns="http://www.w3.org/2000/svg"
   xmlns:svg="http://www.w3.org/2000/svg">
  <defs
     id="defs6" />
  <sodipodi:namedview
     id="namedview4"
     pagecolor="#ffffff"
     bordercolor="#666666"
     borderopacity="1.0"
     inkscape:pageshadow="2"
     inkscape:pageopacity="0.0"
     inkscape:pagecheckerboard="0"
     showgrid="false"
     inkscape:snap-global="false"
     units="in"
     fit-margin-top="0"
     fit-margin-left="0"
     fit-margin-right="0"
     fit-margin-bottom="0"
     inkscape:zoom="0.74173315"
     inkscape:cx="208.29594"
     inkscape:cy="-43.816297"
     inkscape:window-width="1920"
     inkscape:window-height="993"
     inkscape:window-x="0"
     inkscape:window-y="27"
     inkscape:window-maximized="1"
     inkscape:current-layer="g8"
     inkscape:document-units="in" />
  <g
     inkscape:groupmode="layer"
     inkscape:label="Image"
     id="g8"
     transform="translate(10.981407,-27.131215)">
    <g
       id="g5521"
       transform="matrix(2.1923194,0,0,1.9155704,20.170902,2.3183915)">
      <g
         id="g5193"
         transform="rotate(-9.9326763,131.45233,66.948636)">
        <path
           id="path1472"
           style="fill:#ff0040;fill-opacity:0.00133015;fill-rule:evenodd;stroke:#ff0000;stroke-width:2.15949;stroke-opacity:1"
           d="M 58.139391,31.250736 57.413536,61.464617 C 50.131781,61.20637 44.37351,54.407343 44.464473,46.17513 c 0.09097,-8.232214 5.997671,-14.866637 13.28286,-14.919334"
           sodipodi:nodetypes="ccsc" />
        <path
           style="fill:#ff0040;fill-opacity:0.00133015;fill-rule:evenodd;stroke:#ff0000;stroke-width:2.4229;stroke-opacity:1"
           d="m 58.094427,39.013834 c 3.250167,-28.18974 61.237423,-32.1559149 81.063083,-10.04663 2.52477,2.815591 4.43065,6.054066 5.52577,9.71925"
           id="path2136-7"
           sodipodi:nodetypes="csc" />
        <path
           style="fill:#ff0040;fill-opacity:0.00133015;fill-rule:evenodd;stroke:#ff0000;stroke-width:2.60335;stroke-opacity:1"
           d="M 56.707232,32.359433 C 61.741896,-2.1017658 138.52775,1.7981957 147.62247,37.456079"
           id="path2136"
           sodipodi:nodetypes="cc" />
        <path
           id="path1472-6"
           style="fill:#ff0040;fill-opacity:0.00133015;fill-rule:evenodd;stroke:#ff0000;stroke-width:2.12712;stroke-opacity:1"
           d="m 147.86228,34.467759 0.26466,28.028831 c 7.71525,-0.236486 13.81631,-6.462591 13.71994,-14.001115 -0.0964,-7.538523 -6.35473,-13.613895 -14.07361,-13.662151"
           sodipodi:nodetypes="ccsc" />
        <path
           style="fill:#ff0040;fill-opacity:0.00133015;fill-rule:evenodd;stroke:#ff0000;stroke-width:1.32602;stroke-opacity:1"
           d="m 55.571661,62.388683 c -11.107394,13.48726 -11.232873,24.660403 3.962885,44.530267 19.442228,19.53718 75.886874,20.50133 90.275524,-2.75782 9.09796,-17.108849 4.97641,-30.098412 1.06946,-41.800351"
           id="path860"
           sodipodi:nodetypes="cccc" />
        <path
           style="fill:#ff0040;fill-opacity:0.00133015;fill-rule:evenodd;stroke:#ff0000;stroke-width:1.32602;stroke-opacity:1"
           d="m 60.348487,31.614043 c 7.266158,0.168583 13.255827,4.053262 19.276593,7.847412 l 22.89069,-2.599443"
           id="path862"
           sodipodi:nodetypes="ccc" />
        <path
           style="fill:#ff0040;fill-opacity:0.00133015;fill-rule:evenodd;stroke:#ff0000;stroke-width:1.32602;stroke-opacity:1"
           d="m 124.79032,35.699847 c 4.41981,-2.278296 8.54753,-5.061487 13.77087,-5.950799"
           id="path864"
           sodipodi:nodetypes="cc" />
        <ellipse
           style="fill:#ff0040;fill-opacity:0.00133015;fill-rule:evenodd;stroke:#ff0000;stroke-width:1.32602;stroke-opacity:1"
           id="path890"
           cx="101.87031"
           cy="97.560028"
           rx="5.6175814"
           ry="3.1775725" />
        <ellipse
           style="fill:#ff0040;fill-opacity:0.00133015;fill-rule:evenodd;stroke:#ff0000;stroke-width:1.32602;stroke-opacity:1"
           id="path894"
           cx="126.96081"
           cy="53.761822"
           rx="7.2029967"
           ry="7.8306212" />
        <path
           style="fill:#ff0040;fill-opacity:0.00133015;fill-rule:evenodd;stroke:#ff0000;stroke-width:1.32602;stroke-opacity:1"
           d="m 124.13155,35.626455 0.54331,9.428868"
           id="path4313"
           sodipodi:nodetypes="cc" />
        <path
           style="fill:#ff0040;fill-opacity:0.00133015;fill-rule:evenodd;stroke:#ff0000;stroke-width:1.32602;stroke-opacity:1"
           d="m 102.81884,36.808444 c 3.0282,-4.012105 5.95721,-8.221451 10.98453,-8.258429 4.62143,-1.331942 6.95249,4.091185 10.01742,7.349924"
           id="path4311" />
        <path
           style="fill:#ff0040;fill-opacity:0.00133015;fill-rule:evenodd;stroke:#ff0000;stroke-width:1.32602;stroke-opacity:1"
           d="M 117.12054,54.614153 C 108.76356,60.72329 96.25255,60.231422 102.40588,38.550275"
           id="path1009" />
        <path
           style="fill:#ff0040;fill-opacity:0.00133015;fill-rule:evenodd;stroke:#ff0000;stroke-width:1.32602;stroke-opacity:1"
           d="m 150.18495,63.691258 c -2.24053,3.36118 -5.36467,4.570306 -8.62778,7.033808 -8.16695,0.557549 -10.59624,-2.971509 -11.99125,-7.237216"
           id="path4868" />
        <path
           style="fill:#ff0040;fill-opacity:0.00133015;fill-rule:evenodd;stroke:#ff0000;stroke-width:1.32602;stroke-opacity:1"
           d="m 136.06829,49.587324 c -0.006,-1.211537 6.61001,-1.858936 11.71356,-0.823557"
           id="path1011" />
        <path
           style="fill:#ff0040;fill-opacity:0.00133015;fill-rule:evenodd;stroke:#ff0000;stroke-width:1.32602;stroke-opacity:1"
           d="m 117.68374,51.756015 c -3.87603,-1.761101 -6.22655,-3.91683 -3.9181,-7.277758 0.84214,-1.664298 2.1977,-2.795211 8.05782,0.753541"
           id="path1013"
           sodipodi:nodetypes="ccc" />
        <path
           style="fill:#ff0040;fill-opacity:0.00133015;fill-rule:evenodd;stroke:#ff0000;stroke-width:1.32602;stroke-opacity:1"
           d="m 136.8454,53.571038 c 2.30146,1.42823 5.70963,1.5084 4.56973,7.128509 -3.79555,3.370074 -5.4954,1.314675 -7.35512,-0.326815"
           id="path1015"
           sodipodi:nodetypes="ccc" />
        <path
           style="fill:#ff0040;fill-opacity:0.00133015;fill-rule:evenodd;stroke:#ff0000;stroke-width:1.32602;stroke-opacity:1"
           d="M 60.697534,86.145696 C 49.68753,83.744557 41.666273,84.26198 41.666273,84.26198"
           id="path3277"
           sodipodi:nodetypes="cc" />
        <path
           style="fill:#ff0040;fill-opacity:0.00133015;fill-rule:evenodd;stroke:#ff0000;stroke-width:1.32602;stroke-opacity:1"
           d="M 63.214814,94.749723 C 61.092391,93.323671 43.18189,95.893269 44.363056,97.743461"
           id="path3279"
           sodipodi:nodetypes="cc" />
        <path
           style="fill:#ff0040;fill-opacity:0.00133015;fill-rule:evenodd;stroke:#ff0000;stroke-width:1.32602;stroke-opacity:1"
           d="m 70.324637,101.79397 c -8.533863,0.18893 -16.637698,0.89345 -20.707809,6.43423"
           id="path3281"
           sodipodi:nodetypes="cc" />
        <path
           style="fill:#ff0040;fill-opacity:0.00133015;fill-rule:evenodd;stroke:#ff0000;stroke-width:1.32602;stroke-opacity:1"
           d="m 140.94736,99.862006 c 5.22998,0 14.94013,5.902214 14.94013,5.902214"
           id="path3283"
           sodipodi:nodetypes="cc" />
        <path
           style="fill:#ff0040;fill-opacity:0.00133015;fill-rule:evenodd;stroke:#ff0000;stroke-width:1.32602;stroke-opacity:1"
           d="m 144.44871,91.133715 c 4.54524,1.795406 8.55078,4.099602 16.02431,3.134446"
           id="path3285"
           sodipodi:nodetypes="cc" />
        <path
           style="fill:#ff0040;fill-opacity:0.00133015;fill-rule:evenodd;stroke:#ff0000;stroke-width:1.32602;stroke-opacity:1"
           d="m 144.31673,83.260167 c 5.27155,-1.140919 11.75948,-1.520479 14.90393,-3.992811"
           id="path3287"
           sodipodi:nodetypes="cc" />
        <path
           style="fill:#ff0040;fill-opacity:0.00133015;fill-rule:evenodd;stroke:#ff0000;stroke-width:1.934;stroke-opacity:1"
           d="M 86.433146,86.576161 C 79.371059,72.482652 74.80851,85.678082 74.80851,85.678082"
           id="path1346" />
        <path
           style="fill:#ff0040;fill-opacity:0.00133015;fill-rule:evenodd;stroke:#ff0000;stroke-width:1.934;stroke-opacity:1"
           d="M 113.2409,86.481809 C 120.30299,72.3883 124.86553,85.58373 124.86553,85.58373"
           id="path1346-3" />
      </g>
      <g
         id="g5244">
        <path
           style="fill:#0000ff;fill-opacity:0.00133015;fill-rule:evenodd;stroke:#ff0000;stroke-width:1.934"
           d="m 66.288773,175.23825 c -9.584431,-1.57143 -13.390969,-8.32145 -11.763317,-19.94199 6.130786,-7.90431 13.580668,-13.74738 28.613421,-7.74126 16.793632,8.90878 14.608322,16.13357 10.457072,23.18393 -9.868261,-2.89346 -19.050815,-1.85352 -27.307176,4.49932 z"
           id="path860-5"
           sodipodi:nodetypes="ccccc" />
        <path
           style="fill:#0000ff;fill-opacity:0.00133015;fill-rule:evenodd;stroke:#ff0000;stroke-width:1.934"
           d="m 139.784,160.6543 c 2.51539,3.19748 6.87476,1.76749 10.91026,1.15026 5.64684,4.77836 9.26064,5.69671 12.50963,5.92244 5.12925,-6.30496 11.23877,-12.12623 2.57649,-25.23625 -11.09564,-8.36926 -19.33867,-9.05964 -25.89888,-5.22013 -12.61206,6.98011 -10.72322,14.89907 -0.0975,23.38368 z"
           id="path862-6"
           sodipodi:nodetypes="cccccc" />
        <path
           id="path1361"
           style="fill:#0000ff;fill-opacity:0.00133015;fill-rule:evenodd;stroke:#ff0000;stroke-width:1.934"
           d="m 167.84204,162.9716 c 18.45067,0.76587 32.2274,3.79188 32.2274,7.40816 0,4.1948 -18.53718,7.59536 -41.40396,7.59536 -22.86678,0 -41.40396,-3.40056 -41.40396,-7.59536 0,-3.73984 14.73425,-6.84839 34.13467,-7.47868"
           sodipodi:nodetypes="csssc" />
        <path
           id="path1363"
           style="fill:#0000ff;fill-opacity:0.00133015;fill-rule:evenodd;stroke:#ff0000;stroke-width:1.934"
           d="m 57.797021,172.65611 c -6.577446,1.57955 -16.396491,2.58214 -27.365988,2.58214 -19.803679,0 -35.8577331,-3.26771 -35.8577381,-7.29863 5e-6,-4.03092 16.0540591,-7.29863 35.8577381,-7.29863 7.991917,0 15.373176,0.53217 21.335098,1.43192"
           sodipodi:nodetypes="csssc" />
        <path
           style="fill:#0000ff;fill-opacity:0.00133015;fill-rule:evenodd;stroke:#ff0000;stroke-width:1.934"
           d="m 50.638066,152.37562 -64.807377,0.0547"
           id="path1683" />
        <path
           style="fill:#0000ff;fill-opacity:0.00133015;fill-rule:evenodd;stroke:#ff0000;stroke-width:1.934"
           d="M -14.209574,181.5674 246.84355,181.5201"
           id="path1685" />
        <path
           style="fill:#0000ff;fill-opacity:0.00133015;fill-rule:evenodd;stroke:#ff0000;stroke-width:1.934"
           d="m 178.48686,152.51929 c -25.05316,0.0159 34.52525,0.0319 51.78787,0.0478 l 17.68038,27.73408 c -1.15551,3.95032 -0.92378,26.36503 -0.92378,26.36503"
           id="path1687"
           sodipodi:nodetypes="ccc" />
        <path
           style="fill:#0000ff;fill-opacity:0.00133015;fill-rule:evenodd;stroke:#ff0000;stroke-width:1.934"
           d="m 130.05163,152.92763 c -8.86256,0 -33.948001,0.12115 -33.948001,0.12115"
           id="path1689"
           sodipodi:nodetypes="cc" />
        <path
           style="fill:#0000ff;fill-opacity:0.00133015;fill-rule:evenodd;stroke:#ff0000;stroke-width:1.934"
           d="m 56.073839,149.32642 c 7.276481,-9.52969 0.500013,-21.80943 19.011072,-24.52579 24.758028,2.10184 12.732808,18.5938 19.990018,27.87373"
           id="path1691"
           sodipodi:nodetypes="ccc" />
        <path
           style="fill:#0000ff;fill-opacity:0.00133015;fill-rule:evenodd;stroke:#ff0000;stroke-width:1.934"
           d="m 132.76909,140.36775 c 3.13543,-8.3376 -3.50758,-21.80743 12.54154,-23.36726 18.20382,-1.59552 20.60117,13.01959 21.93181,23.89012"
           id="path1693"
           sodipodi:nodetypes="ccc" />
        <path
           style="fill:#0000ff;fill-opacity:0.00133015;fill-rule:evenodd;stroke:#ff0000;stroke-width:1.934"
           d="m 93.480689,130.9183 c 0,0 18.326281,4.99381 19.943521,4.99381 1.61725,0 17.5524,-4.91068 17.5524,-4.91068"
           id="path2659" />
      </g>
    </g>
  </g>
</svg>
