<?xml version="1.0" encoding="UTF-8" standalone="no"?>
<!-- Created with Inkscape (http://www.inkscape.org/) -->

<svg
   version="1.1"
   id="svg1"
   width="11.102316in"
   height="7.4778752in"
   viewBox="0 0 1065.8223 717.87603"
   sodipodi:docname="madara.svg"
   inkscape:version="1.3 (0e150ed, 2023-07-21)"
   xmlns:inkscape="http://www.inkscape.org/namespaces/inkscape"
   xmlns:sodipodi="http://sodipodi.sourceforge.net/DTD/sodipodi-0.dtd"
   xmlns="http://www.w3.org/2000/svg"
   xmlns:svg="http://www.w3.org/2000/svg">
  <defs
     id="defs1" />
  <sodipodi:namedview
     id="namedview1"
     pagecolor="#ffffff"
     bordercolor="#666666"
     borderopacity="1.0"
     inkscape:showpageshadow="2"
     inkscape:pageopacity="0.0"
     inkscape:pagecheckerboard="0"
     inkscape:deskcolor="#d1d1d1"
     inkscape:zoom="1.3558052"
     inkscape:cx="536.21272"
     inkscape:cy="238.6036"
     inkscape:window-width="1920"
     inkscape:window-height="1001"
     inkscape:window-x="0"
     inkscape:window-y="25"
     inkscape:window-maximized="1"
     inkscape:current-layer="g1"
     inkscape:document-units="in" />
  <g
     inkscape:groupmode="layer"
     inkscape:label="Image"
     id="g1"
     transform="translate(2.2212056,122.62743)">
    <g
       id="g33">
      <path
         style="fill:#000000;fill-opacity:0;stroke:#ff0000;stroke-width:0.96"
         d="M 47.082354,589.15539 C 58.668839,493.52392 77.620797,406.76921 99.812015,323.91842 L -1.8006714,410.47677 C 57.681421,302.38218 90.595161,206.10883 163.63107,105.70154 c 0,0 -127.917137,49.87944 -131.964388,49.31566 C 23.731349,153.91181 208.42172,-0.38709285 219.883,2.9044595 486.20692,-169.87457 673.13299,-157.11652 843.62171,1.1642463 842.56032,-8.5239438 1048.0628,250.74361 1048.8607,255.53657 L 927.15672,182.36935 c 50.58164,103.78538 94.52908,221.83001 135.98938,345.22045 -33.5552,-44.53811 -65.00142,-94.60216 -101.54503,-131.30975 l 27.77233,193.93821"
         id="path1"
         sodipodi:nodetypes="ccccsccccccc" />
      <path
         style="fill:#000000;fill-opacity:0;stroke:#ff0000;stroke-width:0.96"
         d="m 116.46883,555.92377 c -4.08315,-47.4913 16.294,-117.30878 38.57677,-166.68457 18.96016,-18.75385 40.49782,-35.42276 68.76641,-46.64701 l -8.17466,245.27556 c -36.79091,-1.35553 -76.94793,-0.1401 -99.16852,-31.94398 z"
         id="path2"
         sodipodi:nodetypes="ccccc" />
      <path
         style="fill:#000000;fill-opacity:0;stroke:#ff0000;stroke-width:0.96"
         d="m 704.98493,575.42582 13.04954,-108.32105 13.66879,-17.12232 18.70726,-0.0975"
         id="path3"
         sodipodi:nodetypes="cccc" />
      <path
         style="fill:#000000;fill-opacity:0;stroke:#ff0000;stroke-width:0.96"
         d="M 244.48229,590.89919 C 315.44563,425.32803 311.74066,257.10698 466.71866,77.292119 422.08085,230.14942 417.37242,340.58669 410.29832,453.53718 l 51.91038,-180.79126 -0.36888,81.91653 C 502.81978,233.49781 532.13091,108.78787 629.15915,4.6522133 730.65576,190.82929 752.97846,381.81973 750.27961,574.33135 l 34.1765,-215.79797 18.56739,233.65805"
         id="path4"
         sodipodi:nodetypes="ccccccccc" />
      <path
         style="fill:#000000;fill-opacity:0;stroke:#ff0000;stroke-width:0.96"
         d="m 857.7641,594.57245 -7.76293,-251.43276 c 6.34944,-10.44382 76.24279,43.45014 84.93964,57.48359 1.88142,3.03591 14.03497,161.02232 14.03497,161.02232 z"
         id="path5"
         sodipodi:nodetypes="ccscc" />
      <path
         style="fill:#000000;fill-opacity:0;stroke:#ff0000;stroke-width:0.96"
         d="m 581.13667,205.44049 c 10.54948,-17.37462 36.55556,-30.86657 78.25025,-40.41756"
         id="path7"
         sodipodi:nodetypes="cc" />
      <path
         style="fill:#000000;fill-opacity:0;stroke:#ff0000;stroke-width:0.96"
         d="m 672.69972,172.92614 c 11.06984,2.49176 21.64644,7.68285 31.05672,19.25679"
         id="path8"
         sodipodi:nodetypes="cc" />
      <path
         style="fill:#000000;fill-opacity:0;stroke:#ff0000;stroke-width:0.96"
         d="m 597.29611,213.48913 c 15.30231,17.39342 33.23534,31.27326 57.33015,36.92349"
         id="path9"
         sodipodi:nodetypes="cc" />
      <path
         style="fill:#000000;fill-opacity:0;stroke:#ff0000;stroke-width:0.96"
         d="m 576.67101,163.59675 7.98964,5.7768 10.22459,-12.41535 c 20.3022,-11.8678 55.54985,-11.70668 86.40758,-15.0788"
         id="path10"
         sodipodi:nodetypes="cccc" />
      <path
         style="fill:#000000;fill-opacity:0;stroke:#ff0000;stroke-width:0.96"
         d="M 642.20423,140.12219 665.09718,74.914445"
         id="path11" />
      <path
         style="fill:#000000;fill-opacity:0;stroke:#ff0000;stroke-width:0.96"
         d="m 523.8094,313.47495 7.02807,-3.80264 3.92382,17.3638"
         id="path12" />
      <path
         style="fill:#000000;fill-opacity:0;stroke:#ff0000;stroke-width:0.96"
         d="m 557.17265,324.7724 3.03478,-18.43868 10.33357,12.08584"
         id="path13" />
      <path
         style="fill:#000000;fill-opacity:0;stroke:#ff0000;stroke-width:0.96"
         d="m 473.27982,412.76362 c 3.60607,-2.12178 33.25199,-14.55299 33.25199,-14.55299"
         id="path14" />
      <path
         style="fill:#000000;fill-opacity:0;stroke:#ff0000;stroke-width:0.96"
         d="m 514.75235,396.82661 c 29.67621,-2.07533 54.58818,-10.95014 104.34621,15.63512"
         id="path15"
         sodipodi:nodetypes="cc" />
      <path
         style="fill:#000000;fill-opacity:0;stroke:#ff0000;stroke-width:0.96"
         d="m 340.10802,425.60949 20.59213,47.67679 c 32.51278,36.75639 74.95643,57.43033 120.30152,73.40554 31.59355,11.91406 58.46087,30.77409 119.7233,-0.91516 57.98184,-24.298 96.36052,-57.8356 128.73025,-94.2054 l 14.17376,-36.04667"
         id="path16"
         sodipodi:nodetypes="cccccc" />
      <path
         style="fill:#000000;fill-opacity:0;stroke:#ff0000;stroke-width:0.96"
         d="m 483.82496,559.25971 9.9877,30.18686"
         id="path17" />
      <path
         style="fill:#000000;fill-opacity:0;stroke:#ff0000;stroke-width:0.96"
         d="m 666.17189,530.80753 -25.81397,62.60459"
         id="path18" />
      <path
         style="fill:#000000;fill-opacity:0;stroke:#ff0000;stroke-width:0.96"
         d="m 514.37609,417.32989 c 20.77951,-6.1587 44.18428,-6.21088 69.96057,-0.74671"
         id="path19"
         sodipodi:nodetypes="cc" />
      <path
         style="fill:#000000;fill-opacity:0;stroke:#ff0000;stroke-width:0.96"
         d="m 314.07466,373.6675 7.48747,12.34524 c -14.56275,22.45631 -12.36618,27.89967 -16.15789,39.42195"
         id="path20"
         sodipodi:nodetypes="ccc" />
      <path
         style="fill:#000000;fill-opacity:0;stroke:#ff0000;stroke-width:0.708066"
         d="m 389.80526,218.32045 c -2.55868,-2.03607 -4.41266,-2.937 -6.0551,-2.94244 -1.6239,-0.005 -2.96333,-0.64475 -4.26553,-2.03615 l -1.89828,-2.02832 2.05282,-1.85684 c 1.12906,-1.02127 3.27614,-3.51057 4.7713,-5.53177 4.58414,-6.19701 16.1481,-17.1257 19.77739,-18.69092 4.61185,-1.98898 16.40386,-3.72213 26.94509,-3.96029 l 8.87466,-0.20051 -2.70715,14.01381 c -1.48894,7.7076 -2.99924,15.67335 -3.35624,17.70166 l -0.64909,3.68785 -6.27247,-0.25838 c -5.31427,-0.21891 -7.87211,0.14728 -16.74377,2.3971 -13.77762,3.49394 -15.74805,3.46557 -20.47363,-0.2948 z"
         id="path21" />
      <path
         style="fill:#000000;fill-opacity:0;stroke:#ff0000;stroke-width:0.708066"
         d="m 695.89643,217.20602 c -1.0944,-0.38638 -18.93789,-1.17905 -32.82182,-1.45807 -14.22374,-0.28584 -18.14287,-0.71262 -21.38176,-2.32839 -1.99816,-0.99681 -2.80949,-1.04137 -5.11379,-0.28089 -1.81352,0.59852 -6.23492,0.81668 -13.08696,0.64574 -10.58036,-0.26395 -12.7849,-0.85256 -12.7849,-3.41352 0,-0.62195 -0.85735,-2.25486 -1.90522,-3.62868 -3.18627,-4.17743 -1.6666,-6.64962 9.28091,-15.09817 12.06802,-9.31328 15.37489,-10.17215 39.23203,-10.1894 9.61055,-0.007 17.65614,0.28249 17.87908,0.64322 0.22294,0.36072 1.28092,0.87561 2.35108,1.14421 1.07015,0.26859 3.08172,1.26027 4.47014,2.20373 2.73468,1.85826 10.56215,9.01645 10.56215,9.65904 0,0.33128 4.14119,5.93416 6.63329,8.97461 2.06221,2.51597 5.16782,8.05818 5.16782,9.22242 0,3.02655 -4.76089,5.21791 -8.48205,3.90415 z"
         id="path22" />
      <path
         style="fill:#000000;fill-opacity:0;stroke:#ff0000;stroke-width:0.96"
         d="m 296.97838,433.50591 14.4639,29.46315 12.62349,1.80917 17.33596,-11.68568 -0.56047,-4.04663 8.92114,2.37152"
         id="path23" />
      <path
         style="fill:#000000;fill-opacity:0;stroke:#ff0000;stroke-width:0.96"
         d="m 362.84784,478.63237 c 5.80057,41.64529 9.86861,86.97192 24.02452,110.8636"
         id="path24"
         sodipodi:nodetypes="cc" />
      <path
         style="fill:#000000;fill-opacity:0;stroke:#ff0000;stroke-width:0.96"
         d="m 574.29211,172.63317 c -10.87981,11.75953 -15.56827,30.24684 -5.38086,64.89896"
         id="path25"
         sodipodi:nodetypes="cc" />
      <path
         style="fill:#000000;fill-opacity:0;stroke:#ff0000;stroke-width:0.96"
         d="m 410.37625,289.63511 c -25.21406,12.55742 -37.87987,13.15629 -53.50878,16.51764 m -8.04611,7.22831 c -10.70109,4.59307 -17.77461,10.18384 -20.14074,17.06929"
         id="path26"
         sodipodi:nodetypes="cccc" />
      <path
         style="fill:#000000;fill-opacity:0;stroke:#ff0000;stroke-width:0.96"
         d="m 496.79163,257.27265 c 8.96257,-3.37628 18.77678,-7.29019 25.86381,-21.23326 m 4.30418,-13.92107 c 16.92599,-20.88851 26.5171,-10.21619 37.18385,-8.63551 l 16.90377,30.02145 c 14.86067,16.29134 34.03477,19.83886 52.32653,25.99319 m 8.52868,4.35019 25.40337,30.68786 c 5.60427,20.26988 12.21833,39.78185 23.31571,55.92875 12.11464,6.43258 10.99665,11.80016 11.95264,17.33467"
         id="path27"
         sodipodi:nodetypes="cccccccccc" />
      <path
         style="fill:#000000;fill-opacity:0;stroke:#ff0000;stroke-width:0.96"
         d="m 715.30538,420.54574 c 6.31982,20.61877 1.7778,27.75879 2.51825,37.91309"
         id="path28"
         sodipodi:nodetypes="cc" />
      <path
         style="fill:#000000;fill-opacity:0;stroke:#ff0000;stroke-width:0.96"
         d="m 408.79771,504.70127 c -7.12621,-12.03925 18.44284,-15.36139 31.0511,-22.13909 l 6.54277,-5.83248 c 4.96455,-9.61824 13.43023,-15.84911 27.51961,-16.63902"
         id="path29"
         sodipodi:nodetypes="cccc" />
      <path
         style="fill:#000000;fill-opacity:0;stroke:#ff0000;stroke-width:0.96"
         d="m 695.78137,297.30292 c 13.51832,10.66378 27.03663,21.32127 40.55495,39.75985"
         id="path30"
         sodipodi:nodetypes="cc" />
      <path
         style="fill:#000000;fill-opacity:0;stroke:#ff0000;stroke-width:0.96"
         d="m 418.03804,145.22327 c 13.50434,-4.76417 32.1883,1.91855 29.21295,4.18419"
         id="path31"
         sodipodi:nodetypes="cc" />
      <path
         style="fill:#000000;fill-opacity:0;stroke:#ff0000;stroke-width:0.96"
         d="m 356.43517,261.09203 c 0.28358,-4.47337 61.16711,10.48454 66.31,19.66109"
         id="path32"
         sodipodi:nodetypes="cc" />
      <path
         style="fill:#000000;fill-opacity:0;stroke:#ff0000;stroke-width:0.96"
         d="m 369.87705,230.518 c 14.18869,14.04963 28.37739,24.12258 42.56608,24.50407"
         id="path33"
         sodipodi:nodetypes="cc" />
    </g>
  </g>
</svg>
